# xmcd CD database file
#
# Track frame offsets:
#	180
#	13357
#	26650
#	44145
#	59679
#	76285
#	92306
#	107139
#	121571
#	134837
#
# Disc length: 1940 seconds
#
# Revision: 0
# Processed by: cddbd v1.4PL0 Copyright (c) Steve Scherf et al.
# Submitted via: CDex 1.50
#
DISCID=8807920a
DTITLE=Various Artist - Tempo Brésil 2
DYEAR=1900
DGENRE=Jazz
TTITLE0=Gilberto Gil - Roda
TTITLE1=Chico Buarque -O Velho Francisco
TTITLE2=Joyce - A Felicidade
TTITLE3=Flavio Faria - Essa Moca ta Differente
TTITLE4=Astrud Gilberto - Meu Piao
TTITLE5=Edu Lobo - Cinco Criancas
TTITLE6=Gal Costa - Bem Bom
TTITLE7=Two Man sound - Charlie Brown
TTITLE8=Joyce - Desafinado - Aquarela do Brasil - Let's play that
TTITLE9=Maria Bethania - Viramundo
EXTD=
EXTT0=
EXTT1=
EXTT2=
EXTT3=
EXTT4=
EXTT5=
EXTT6=
EXTT7=
EXTT8=
EXTT9=
PLAYORDER=
